<?xml version="1.0" encoding="utf-8"?>
<!-- Svg Vector Icons : http://www.onlinewebfonts.com/icon -->
<!DOCTYPE svg PUBLIC "-//W3C//DTD SVG 1.1//EN" "http://www.w3.org/Graphics/SVG/1.1/DTD/svg11.dtd">
<svg version="1.1" xmlns="http://www.w3.org/2000/svg" xmlns:xlink="http://www.w3.org/1999/xlink" x="0px" y="0px" viewBox="0 0 256 256" enable-background="new 0 0 256 256" xml:space="preserve">
<metadata> Svg Vector Icons : http://www.onlinewebfonts.com/icon </metadata>
<g><g><path fill="#000000" d="M128,10C62.8,10,10,62.8,10,128c0,65.2,52.8,118,118,118c65.2,0,118-52.8,118-118C246,62.8,193.2,10,128,10z M128.2,236.8c-40.4,0-69.1-24.8-69.5-25.1c6.6-3.8,33.4-9,39.7-13c7-4.4,4.7-28.3,4.7-28.3l-4.7-4.1c0,0-0.9-11-3.3-14.7c-3.9-6.5-9.4-23.6-9.4-23.6s-3.7-2.7-4.6-7.4c-1.2-0.5-1.2-2.3-0.1-2.9c0.4-5.5,4.7-8.6,4.7-8.6S82,92.3,82,80.7C82,54.3,102.1,43,129.6,43c27.5,0,42.8,13.4,42.8,37.8c0,11.6-1.8,28.3-1.8,28.3s4.7,3.4,4.7,9.4s-4.7,9.4-4.7,9.4s-4.8,14.8-9.4,23.6c-2,3.9-3.3,14.7-3.3,14.7l-4.7,4.1c0,0-2.2,23.9,4.7,28.3c6.2,3.9,32.4,9,39.4,12.8C197.3,212,168.6,236.8,128.2,236.8z"/></g></g>
</svg>